<svg id="svg" version="1.1" xmlns="http://www.w3.org/2000/svg" xmlns:xlink="http://www.w3.org/1999/xlink" width="400" height="400" viewBox="0, 0, 400,400"><g id="svgg"><path id="path0" d="M156.499 104.501 L 102.400 158.601 156.599 212.799 L 210.797 266.996 220.599 257.201 C 225.989 251.814,230.400 247.224,230.400 247.002 C 230.400 246.780,210.690 226.889,186.600 202.800 C 162.510 178.711,142.800 158.821,142.800 158.600 C 142.800 158.379,162.510 138.489,186.600 114.400 C 210.690 90.311,230.400 70.420,230.400 70.198 C 230.400 69.803,211.187 50.400,210.796 50.400 C 210.688 50.400,186.254 74.745,156.499 104.501 M182.797 148.700 L 173.000 158.600 182.900 148.803 C 192.099 139.699,192.980 138.800,192.697 138.800 C 192.640 138.800,188.185 143.255,182.797 148.700 M247.600 193.000 C 277.409 222.810,301.889 247.200,301.999 247.200 C 302.109 247.200,277.809 222.810,248.000 193.000 C 218.191 163.190,193.711 138.800,193.601 138.800 C 193.491 138.800,217.791 163.190,247.600 193.000 M173.200 159.195 C 173.200 159.307,192.955 179.154,217.099 203.299 L 260.999 247.200 217.000 291.300 L 173.000 335.400 217.199 291.301 L 261.397 247.202 217.299 203.097 C 193.044 178.839,173.200 159.083,173.200 159.195 M247.300 301.697 L 193.200 355.794 182.900 345.597 L 172.600 335.400 182.772 345.675 C 190.725 353.709,193.082 355.874,193.572 355.600 C 194.278 355.205,301.911 247.600,301.599 247.600 C 301.490 247.601,277.055 271.944,247.300 301.697 " stroke="none" fill="#9cb49c" fill-rule="evenodd"></path><path id="path1" d="M183.282 148.918 L 173.570 158.636 212.685 197.862 C 234.198 219.436,254.048 239.363,256.795 242.145 L 261.790 247.202 217.597 291.402 L 173.403 335.601 183.298 345.496 L 193.193 355.391 246.997 301.464 C 276.588 271.803,300.800 247.325,300.800 247.067 C 300.800 246.628,193.634 139.200,193.196 139.200 C 193.085 139.200,188.623 143.573,183.282 148.918 " stroke="none" fill="#444444" fill-rule="evenodd"></path><path id="path2" d="M188.000 0.789 C 188.000 1.047,186.216 1.200,183.200 1.200 C 180.267 1.200,178.400 1.356,178.400 1.600 C 178.400 1.837,176.933 2.000,174.800 2.000 C 172.667 2.000,171.200 2.163,171.200 2.400 C 171.200 2.622,170.133 2.800,168.800 2.800 C 167.467 2.800,166.400 2.978,166.400 3.200 C 166.400 3.422,165.333 3.600,164.000 3.600 C 162.667 3.600,161.600 3.778,161.600 4.000 C 161.600 4.220,160.700 4.400,159.600 4.400 C 158.500 4.400,157.600 4.580,157.600 4.800 C 157.600 5.020,156.880 5.200,156.000 5.200 C 155.120 5.200,154.400 5.380,154.400 5.600 C 154.400 5.820,153.590 6.000,152.600 6.000 C 151.610 6.000,150.800 6.180,150.800 6.400 C 150.800 6.620,150.091 6.800,149.224 6.800 C 148.357 6.800,147.536 6.980,147.400 7.200 C 147.264 7.420,146.623 7.600,145.976 7.600 C 145.329 7.600,144.800 7.780,144.800 8.000 C 144.800 8.220,144.181 8.400,143.424 8.400 C 142.667 8.400,141.936 8.580,141.800 8.800 C 141.664 9.020,141.023 9.200,140.376 9.200 C 139.729 9.200,139.200 9.380,139.200 9.600 C 139.200 9.820,138.649 10.000,137.976 10.000 C 137.263 10.000,136.856 10.167,137.000 10.400 C 137.147 10.638,136.671 10.800,135.824 10.800 C 135.041 10.800,134.400 10.980,134.400 11.200 C 134.400 11.420,133.860 11.600,133.200 11.600 C 132.540 11.600,132.000 11.780,132.000 12.000 C 132.000 12.220,131.645 12.400,131.212 12.400 C 130.779 12.400,129.783 12.760,129.000 13.200 C 128.217 13.640,127.121 14.000,126.564 14.000 C 125.992 14.000,125.660 14.174,125.800 14.400 C 125.940 14.627,125.604 14.800,125.024 14.800 C 124.461 14.800,124.000 14.980,124.000 15.200 C 124.000 15.420,123.561 15.600,123.024 15.600 C 122.487 15.600,121.936 15.780,121.800 16.000 C 121.664 16.220,121.203 16.400,120.776 16.400 C 120.349 16.400,120.000 16.580,120.000 16.800 C 120.000 17.020,119.640 17.200,119.200 17.200 C 118.760 17.200,118.400 17.380,118.400 17.600 C 118.400 17.820,117.950 18.000,117.400 18.000 C 116.850 18.000,116.400 18.180,116.400 18.400 C 116.400 18.620,116.159 18.800,115.864 18.800 C 115.264 18.800,107.622 22.618,107.024 23.216 C 106.813 23.427,106.316 23.600,105.920 23.600 C 105.524 23.600,105.200 23.780,105.200 24.000 C 105.200 24.220,104.840 24.400,104.400 24.400 C 103.960 24.400,103.600 24.580,103.600 24.800 C 103.600 25.020,103.280 25.200,102.888 25.200 C 102.497 25.200,101.917 25.560,101.600 26.000 C 101.283 26.440,100.703 26.800,100.312 26.800 C 99.920 26.800,99.600 26.980,99.600 27.200 C 99.600 27.420,99.280 27.600,98.888 27.600 C 98.497 27.600,97.917 27.960,97.600 28.400 C 97.283 28.840,96.703 29.200,96.312 29.200 C 95.920 29.200,95.600 29.380,95.600 29.600 C 95.600 29.820,95.280 30.000,94.888 30.000 C 94.497 30.000,93.917 30.360,93.600 30.800 C 93.283 31.240,92.743 31.600,92.400 31.600 C 92.057 31.600,91.517 31.960,91.200 32.400 C 90.883 32.840,90.303 33.200,89.912 33.200 C 89.520 33.200,89.200 33.380,89.200 33.600 C 89.200 33.820,88.912 34.000,88.560 34.000 C 88.209 34.000,87.417 34.540,86.800 35.200 C 86.183 35.860,85.431 36.400,85.128 36.400 C 84.825 36.400,84.317 36.760,84.000 37.200 C 83.683 37.640,83.175 38.000,82.872 38.000 C 82.569 38.000,81.817 38.540,81.200 39.200 C 80.583 39.860,79.863 40.400,79.600 40.400 C 79.337 40.400,78.617 40.940,78.000 41.600 C 77.383 42.260,76.667 42.800,76.408 42.800 C 76.149 42.800,75.246 43.520,74.400 44.400 C 73.554 45.280,72.659 46.000,72.409 46.000 C 72.160 46.000,70.896 47.080,69.600 48.400 C 68.304 49.720,67.053 50.800,66.820 50.800 C 66.265 50.800,50.000 67.065,50.000 67.620 C 50.000 67.853,48.920 69.104,47.600 70.400 C 46.280 71.696,45.200 72.960,45.200 73.209 C 45.200 73.459,44.480 74.354,43.600 75.200 C 42.720 76.046,42.000 76.946,42.000 77.200 C 42.000 77.454,41.280 78.354,40.400 79.200 C 39.520 80.046,38.800 80.982,38.800 81.280 C 38.800 81.579,38.440 82.083,38.000 82.400 C 37.560 82.717,37.200 83.225,37.200 83.528 C 37.200 83.831,36.660 84.583,36.000 85.200 C 35.340 85.817,34.800 86.569,34.800 86.872 C 34.800 87.175,34.440 87.683,34.000 88.000 C 33.560 88.317,33.200 88.857,33.200 89.200 C 33.200 89.543,32.840 90.083,32.400 90.400 C 31.960 90.717,31.600 91.257,31.600 91.600 C 31.600 91.943,31.240 92.483,30.800 92.800 C 30.360 93.117,30.000 93.609,30.000 93.894 C 30.000 94.587,29.162 96.041,28.300 96.843 C 27.915 97.201,27.600 97.788,27.600 98.147 C 27.600 98.506,27.420 98.800,27.200 98.800 C 26.980 98.800,26.800 99.120,26.800 99.512 C 26.800 99.903,26.440 100.483,26.000 100.800 C 25.560 101.117,25.200 101.697,25.200 102.088 C 25.200 102.480,25.020 102.800,24.800 102.800 C 24.580 102.800,24.400 103.160,24.400 103.600 C 24.400 104.040,24.254 104.400,24.075 104.400 C 23.896 104.400,23.502 105.030,23.200 105.800 C 22.898 106.570,22.504 107.200,22.325 107.200 C 22.146 107.200,22.000 107.560,22.000 108.000 C 22.000 108.440,21.820 108.800,21.600 108.800 C 21.380 108.800,21.200 109.160,21.200 109.600 C 21.200 110.040,21.020 110.400,20.800 110.400 C 20.580 110.400,20.400 110.760,20.400 111.200 C 20.400 111.640,20.220 112.000,20.000 112.000 C 19.780 112.000,19.600 112.360,19.600 112.800 C 19.600 113.240,19.420 113.600,19.200 113.600 C 18.980 113.600,18.800 113.960,18.800 114.400 C 18.800 114.840,18.620 115.200,18.400 115.200 C 18.180 115.200,18.000 115.560,18.000 116.000 C 18.000 116.440,17.820 116.800,17.600 116.800 C 17.380 116.800,17.200 117.065,17.200 117.388 C 17.200 117.711,16.840 118.617,16.400 119.400 C 15.960 120.183,15.600 121.179,15.600 121.612 C 15.600 122.045,15.420 122.400,15.200 122.400 C 14.980 122.400,14.800 122.665,14.800 122.988 C 14.800 123.311,14.440 124.217,14.000 125.000 C 13.560 125.783,13.200 126.779,13.200 127.212 C 13.200 127.645,13.020 128.000,12.800 128.000 C 12.580 128.000,12.400 128.540,12.400 129.200 C 12.400 129.860,12.220 130.400,12.000 130.400 C 11.780 130.400,11.600 130.749,11.600 131.176 C 11.600 131.603,11.420 132.064,11.200 132.200 C 10.980 132.336,10.800 132.887,10.800 133.424 C 10.800 133.961,10.620 134.400,10.400 134.400 C 10.180 134.400,10.000 134.940,10.000 135.600 C 10.000 136.260,9.820 136.800,9.600 136.800 C 9.380 136.800,9.200 137.340,9.200 138.000 C 9.200 138.660,9.020 139.200,8.800 139.200 C 8.580 139.200,8.400 139.729,8.400 140.376 C 8.400 141.023,8.220 141.664,8.000 141.800 C 7.780 141.936,7.600 142.667,7.600 143.424 C 7.600 144.181,7.420 144.800,7.200 144.800 C 6.980 144.800,6.800 145.329,6.800 145.976 C 6.800 146.623,6.620 147.264,6.400 147.400 C 6.180 147.536,6.000 148.267,6.000 149.024 C 6.000 149.781,5.820 150.400,5.600 150.400 C 5.380 150.400,5.200 151.210,5.200 152.200 C 5.200 153.190,5.020 154.000,4.800 154.000 C 4.580 154.000,4.400 154.810,4.400 155.800 C 4.400 156.790,4.220 157.600,4.000 157.600 C 3.780 157.600,3.600 158.320,3.600 159.200 C 3.600 160.080,3.420 160.800,3.200 160.800 C 2.978 160.800,2.800 161.867,2.800 163.200 C 2.800 164.533,2.622 165.600,2.400 165.600 C 2.178 165.600,2.000 166.667,2.000 168.000 C 2.000 169.333,1.822 170.400,1.600 170.400 C 1.367 170.400,1.200 171.722,1.200 173.567 C 1.200 175.744,1.044 176.785,0.700 176.900 C -0.032 177.144,-0.032 225.256,0.700 225.500 C 1.036 225.612,1.200 226.576,1.200 228.433 C 1.200 230.011,1.372 231.200,1.600 231.200 C 1.822 231.200,2.000 232.267,2.000 233.600 C 2.000 234.933,2.178 236.000,2.400 236.000 C 2.622 236.000,2.800 237.067,2.800 238.400 C 2.800 239.733,2.978 240.800,3.200 240.800 C 3.420 240.800,3.600 241.599,3.600 242.576 C 3.600 243.553,3.780 244.464,4.000 244.600 C 4.220 244.736,4.400 245.557,4.400 246.424 C 4.400 247.291,4.580 248.000,4.800 248.000 C 5.020 248.000,5.200 248.720,5.200 249.600 C 5.200 250.480,5.380 251.200,5.600 251.200 C 5.820 251.200,6.000 251.920,6.000 252.800 C 6.000 253.680,6.180 254.400,6.400 254.400 C 6.620 254.400,6.800 254.940,6.800 255.600 C 6.800 256.260,6.980 256.800,7.200 256.800 C 7.420 256.800,7.600 257.505,7.600 258.367 C 7.600 259.228,7.778 259.993,7.997 260.067 C 8.215 260.140,8.433 260.682,8.481 261.271 C 8.530 261.860,8.712 262.255,8.885 262.148 C 9.144 261.987,9.306 263.205,9.166 264.255 C 9.147 264.396,9.326 264.631,9.564 264.778 C 9.802 264.925,10.036 265.530,10.085 266.122 C 10.134 266.715,10.315 267.200,10.487 267.200 C 10.659 267.200,10.800 267.740,10.800 268.400 C 10.800 269.060,10.980 269.600,11.200 269.600 C 11.420 269.600,11.600 269.955,11.600 270.388 C 11.600 270.821,11.960 271.817,12.400 272.600 C 12.840 273.383,13.200 274.479,13.200 275.036 C 13.200 275.608,13.374 275.940,13.600 275.800 C 13.827 275.660,14.000 275.996,14.000 276.576 C 14.000 277.139,14.180 277.600,14.400 277.600 C 14.620 277.600,14.800 277.955,14.800 278.388 C 14.800 278.821,15.160 279.817,15.600 280.600 C 16.040 281.383,16.400 282.289,16.400 282.612 C 16.400 282.935,16.580 283.200,16.800 283.200 C 17.020 283.200,17.200 283.560,17.200 284.000 C 17.200 284.440,17.380 284.800,17.600 284.800 C 17.820 284.800,18.000 285.250,18.000 285.800 C 18.000 286.350,18.180 286.800,18.400 286.800 C 18.620 286.800,18.800 287.160,18.800 287.600 C 18.800 288.040,18.980 288.400,19.200 288.400 C 19.420 288.400,19.600 288.634,19.600 288.920 C 19.600 289.656,20.541 291.593,20.900 291.597 C 21.065 291.599,21.200 291.960,21.200 292.400 C 21.200 292.840,21.380 293.200,21.600 293.200 C 21.820 293.200,22.000 293.560,22.000 294.000 C 22.000 294.440,22.180 294.800,22.400 294.800 C 22.620 294.800,22.800 295.078,22.800 295.417 C 22.800 295.756,23.160 296.420,23.600 296.892 C 24.040 297.364,24.400 297.987,24.400 298.275 C 24.400 298.564,24.580 298.800,24.800 298.800 C 25.020 298.800,25.200 299.160,25.200 299.600 C 25.200 300.040,25.380 300.400,25.600 300.400 C 25.820 300.400,26.000 300.720,26.000 301.112 C 26.000 301.503,26.360 302.083,26.800 302.400 C 27.240 302.717,27.600 303.297,27.600 303.688 C 27.600 304.080,27.780 304.400,28.000 304.400 C 28.220 304.400,28.400 304.720,28.400 305.112 C 28.400 305.503,28.760 306.083,29.200 306.400 C 29.640 306.717,30.000 307.257,30.000 307.600 C 30.000 307.943,30.360 308.483,30.800 308.800 C 31.240 309.117,31.600 309.657,31.600 310.000 C 31.600 310.343,31.960 310.883,32.400 311.200 C 32.840 311.517,33.200 312.057,33.200 312.400 C 33.200 312.743,33.560 313.283,34.000 313.600 C 34.440 313.917,34.800 314.457,34.800 314.800 C 34.800 315.143,35.160 315.683,35.600 316.000 C 36.040 316.317,36.400 316.825,36.400 317.128 C 36.400 317.431,36.940 318.183,37.600 318.800 C 38.260 319.417,38.800 320.137,38.800 320.400 C 38.800 320.663,39.340 321.383,40.000 322.000 C 40.660 322.617,41.200 323.337,41.200 323.600 C 41.200 323.863,41.740 324.583,42.400 325.200 C 43.060 325.817,43.600 326.529,43.600 326.783 C 43.600 327.037,44.680 328.304,46.000 329.600 C 47.320 330.896,48.400 332.147,48.400 332.380 C 48.400 332.937,67.867 352.400,68.424 352.400 C 68.659 352.400,69.729 353.300,70.800 354.400 C 71.871 355.500,72.954 356.400,73.205 356.400 C 73.457 356.400,74.354 357.120,75.200 358.000 C 76.046 358.880,76.949 359.600,77.208 359.600 C 77.467 359.600,78.183 360.140,78.800 360.800 C 79.417 361.460,80.137 362.000,80.400 362.000 C 80.663 362.000,81.383 362.540,82.000 363.200 C 82.617 363.860,83.369 364.400,83.672 364.400 C 83.975 364.400,84.483 364.760,84.800 365.200 C 85.117 365.640,85.657 366.000,86.000 366.000 C 86.343 366.000,86.883 366.360,87.200 366.800 C 87.517 367.240,88.057 367.600,88.400 367.600 C 88.743 367.600,89.283 367.960,89.600 368.400 C 89.917 368.840,90.457 369.200,90.800 369.200 C 91.143 369.200,91.683 369.560,92.000 370.000 C 92.317 370.440,92.857 370.800,93.200 370.800 C 93.543 370.800,94.083 371.160,94.400 371.600 C 94.717 372.040,95.297 372.400,95.688 372.400 C 96.080 372.400,96.400 372.580,96.400 372.800 C 96.400 373.020,96.720 373.200,97.112 373.200 C 97.503 373.200,98.083 373.560,98.400 374.000 C 98.717 374.440,99.297 374.800,99.688 374.800 C 100.080 374.800,100.400 374.980,100.400 375.200 C 100.400 375.420,100.745 375.600,101.167 375.600 C 101.588 375.600,101.993 375.735,102.067 375.900 C 102.140 376.065,103.055 376.633,104.100 377.163 C 105.145 377.692,106.000 378.277,106.000 378.463 C 106.000 378.648,106.360 378.800,106.800 378.800 C 107.240 378.800,107.600 378.980,107.600 379.200 C 107.600 379.420,107.960 379.600,108.400 379.600 C 108.840 379.600,109.200 379.780,109.200 380.000 C 109.200 380.220,109.560 380.400,110.000 380.400 C 110.440 380.400,110.800 380.580,110.800 380.800 C 110.800 381.020,111.160 381.200,111.600 381.200 C 112.040 381.200,112.400 381.380,112.400 381.600 C 112.400 381.820,112.760 382.000,113.200 382.000 C 113.640 382.000,114.000 382.180,114.000 382.400 C 114.000 382.620,114.450 382.800,115.000 382.800 C 115.550 382.800,116.000 382.980,116.000 383.200 C 116.000 383.420,116.360 383.600,116.800 383.600 C 117.240 383.600,117.600 383.780,117.600 384.000 C 117.600 384.220,117.865 384.400,118.188 384.400 C 118.511 384.400,119.417 384.760,120.200 385.200 C 120.983 385.640,121.979 386.000,122.412 386.000 C 122.845 386.000,123.200 386.180,123.200 386.400 C 123.200 386.620,123.549 386.800,123.976 386.800 C 124.403 386.800,124.864 386.980,125.000 387.200 C 125.136 387.420,125.687 387.600,126.224 387.600 C 126.761 387.600,127.200 387.780,127.200 388.000 C 127.200 388.220,127.335 388.379,127.500 388.353 C 128.572 388.183,130.008 388.463,129.800 388.800 C 129.664 389.020,129.923 389.200,130.376 389.200 C 130.829 389.200,131.200 389.380,131.200 389.600 C 131.200 389.820,131.740 390.000,132.400 390.000 C 133.060 390.000,133.600 390.180,133.600 390.400 C 133.600 390.620,134.140 390.800,134.800 390.800 C 135.460 390.800,136.000 390.980,136.000 391.200 C 136.000 391.420,136.540 391.600,137.200 391.600 C 137.860 391.600,138.400 391.780,138.400 392.000 C 138.400 392.220,138.929 392.400,139.576 392.400 C 140.223 392.400,140.864 392.580,141.000 392.800 C 141.136 393.020,141.867 393.200,142.624 393.200 C 143.381 393.200,144.000 393.380,144.000 393.600 C 144.000 393.820,144.529 394.000,145.176 394.000 C 145.823 394.000,146.464 394.180,146.600 394.400 C 146.736 394.620,147.467 394.800,148.224 394.800 C 148.981 394.800,149.600 394.980,149.600 395.200 C 149.600 395.420,150.320 395.600,151.200 395.600 C 152.080 395.600,152.800 395.780,152.800 396.000 C 152.800 396.220,153.700 396.400,154.800 396.400 C 155.900 396.400,156.800 396.580,156.800 396.800 C 156.800 397.020,157.700 397.200,158.800 397.200 C 159.900 397.200,160.800 397.380,160.800 397.600 C 160.800 397.820,161.700 398.000,162.800 398.000 C 163.900 398.000,164.800 398.180,164.800 398.400 C 164.800 398.622,165.856 398.800,167.167 398.800 C 168.704 398.800,169.592 398.975,169.700 399.300 C 169.944 400.033,229.256 400.033,229.500 399.300 C 229.612 398.964,230.576 398.800,232.433 398.800 C 234.011 398.800,235.200 398.628,235.200 398.400 C 235.200 398.180,236.100 398.000,237.200 398.000 C 238.300 398.000,239.200 397.820,239.200 397.600 C 239.200 397.380,240.100 397.200,241.200 397.200 C 242.300 397.200,243.200 397.020,243.200 396.800 C 243.200 396.580,243.920 396.400,244.800 396.400 C 245.680 396.400,246.400 396.220,246.400 396.000 C 246.400 395.780,247.120 395.600,248.000 395.600 C 248.880 395.600,249.600 395.420,249.600 395.200 C 249.600 394.980,250.320 394.800,251.200 394.800 C 252.080 394.800,252.800 394.620,252.800 394.400 C 252.800 394.180,253.520 394.000,254.400 394.000 C 255.280 394.000,256.000 393.820,256.000 393.600 C 256.000 393.380,256.540 393.200,257.200 393.200 C 257.860 393.200,258.400 393.020,258.400 392.800 C 258.400 392.580,258.940 392.400,259.600 392.400 C 260.260 392.400,260.800 392.220,260.800 392.000 C 260.800 391.780,261.340 391.600,262.000 391.600 C 262.660 391.600,263.200 391.420,263.200 391.200 C 263.200 390.980,263.740 390.800,264.400 390.800 C 265.060 390.800,265.600 390.620,265.600 390.400 C 265.600 390.180,266.125 390.000,266.767 390.000 C 267.408 390.000,267.993 389.822,268.067 389.603 C 268.140 389.385,268.695 389.166,269.300 389.116 C 269.905 389.066,270.400 388.885,270.400 388.713 C 270.400 388.541,270.839 388.400,271.376 388.400 C 271.913 388.400,272.464 388.220,272.600 388.000 C 272.736 387.780,273.197 387.600,273.624 387.600 C 274.051 387.600,274.400 387.420,274.400 387.200 C 274.400 386.980,274.839 386.800,275.376 386.800 C 275.913 386.800,276.464 386.620,276.600 386.400 C 276.736 386.180,277.197 386.000,277.624 386.000 C 278.051 386.000,278.400 385.820,278.400 385.600 C 278.400 385.380,278.760 385.200,279.200 385.200 C 279.640 385.200,280.000 385.020,280.000 384.800 C 280.000 384.580,280.450 384.400,281.000 384.400 C 281.550 384.400,282.000 384.220,282.000 384.000 C 282.000 383.780,282.349 383.600,282.776 383.600 C 283.203 383.600,283.664 383.420,283.800 383.200 C 283.936 382.980,284.382 382.800,284.790 382.800 C 285.199 382.800,285.593 382.663,285.667 382.495 C 285.740 382.327,287.780 381.205,290.200 380.000 C 292.620 378.795,294.660 377.673,294.733 377.505 C 294.807 377.337,295.212 377.200,295.633 377.200 C 296.055 377.200,296.400 377.020,296.400 376.800 C 296.400 376.580,296.720 376.400,297.112 376.400 C 297.503 376.400,298.083 376.040,298.400 375.600 C 298.717 375.160,299.297 374.800,299.688 374.800 C 300.080 374.800,300.400 374.620,300.400 374.400 C 300.400 374.180,300.720 374.000,301.112 374.000 C 301.503 374.000,302.083 373.640,302.400 373.200 C 302.717 372.760,303.297 372.400,303.688 372.400 C 304.080 372.400,304.400 372.220,304.400 372.000 C 304.400 371.780,304.720 371.600,305.112 371.600 C 305.503 371.600,306.083 371.240,306.400 370.800 C 306.717 370.360,307.257 370.000,307.600 370.000 C 307.943 370.000,308.483 369.640,308.800 369.200 C 309.117 368.760,309.657 368.400,310.000 368.400 C 310.343 368.400,310.883 368.040,311.200 367.600 C 311.517 367.160,312.057 366.800,312.400 366.800 C 312.743 366.800,313.283 366.440,313.600 366.000 C 313.917 365.560,314.457 365.200,314.800 365.200 C 315.143 365.200,315.683 364.840,316.000 364.400 C 316.317 363.960,316.825 363.600,317.128 363.600 C 317.431 363.600,318.183 363.060,318.800 362.400 C 319.417 361.740,320.137 361.200,320.400 361.200 C 320.663 361.200,321.383 360.660,322.000 360.000 C 322.617 359.340,323.330 358.800,323.586 358.800 C 323.842 358.800,324.929 357.900,326.000 356.800 C 327.071 355.700,328.150 354.800,328.396 354.800 C 328.643 354.800,329.904 353.720,331.200 352.400 C 332.496 351.080,333.747 350.000,333.981 350.000 C 334.534 350.000,348.400 336.137,348.400 335.584 C 348.400 335.351,349.660 333.919,351.200 332.400 C 352.740 330.881,354.000 329.436,354.000 329.188 C 354.000 328.940,354.720 328.046,355.600 327.200 C 356.480 326.354,357.200 325.454,357.200 325.200 C 357.200 324.946,357.920 324.046,358.800 323.200 C 359.680 322.354,360.400 321.418,360.400 321.120 C 360.400 320.821,360.760 320.317,361.200 320.000 C 361.640 319.683,362.000 319.175,362.000 318.872 C 362.000 318.569,362.540 317.817,363.200 317.200 C 363.860 316.583,364.400 315.831,364.400 315.528 C 364.400 315.225,364.760 314.717,365.200 314.400 C 365.640 314.083,366.000 313.543,366.000 313.200 C 366.000 312.857,366.360 312.317,366.800 312.000 C 367.240 311.683,367.600 311.143,367.600 310.800 C 367.600 310.457,367.960 309.917,368.400 309.600 C 368.840 309.283,369.200 308.743,369.200 308.400 C 369.200 308.057,369.560 307.517,370.000 307.200 C 370.440 306.883,370.800 306.303,370.800 305.912 C 370.800 305.520,370.980 305.200,371.200 305.200 C 371.420 305.200,371.600 304.880,371.600 304.488 C 371.600 304.097,371.960 303.517,372.400 303.200 C 372.840 302.883,373.200 302.303,373.200 301.912 C 373.200 301.520,373.380 301.200,373.600 301.200 C 373.820 301.200,374.000 300.840,374.000 300.400 C 374.000 299.960,374.180 299.600,374.400 299.600 C 374.620 299.600,374.800 299.240,374.800 298.800 C 374.800 298.360,374.980 298.000,375.200 298.000 C 375.420 298.000,375.600 297.764,375.600 297.475 C 375.600 297.187,375.960 296.564,376.400 296.092 C 376.840 295.620,377.200 294.956,377.200 294.617 C 377.200 294.278,377.380 294.000,377.600 294.000 C 377.820 294.000,378.000 293.655,378.000 293.233 C 378.000 292.812,378.135 292.407,378.300 292.333 C 378.732 292.141,380.400 288.828,380.400 288.162 C 380.400 287.853,380.580 287.600,380.800 287.600 C 381.020 287.600,381.200 287.240,381.200 286.800 C 381.200 286.360,381.380 286.000,381.600 286.000 C 381.820 286.000,382.000 285.550,382.000 285.000 C 382.000 284.450,382.180 284.000,382.400 284.000 C 382.620 284.000,382.800 283.640,382.800 283.200 C 382.800 282.760,382.980 282.400,383.200 282.400 C 383.420 282.400,383.600 282.135,383.600 281.812 C 383.600 281.489,383.960 280.583,384.400 279.800 C 384.840 279.017,385.200 278.021,385.200 277.588 C 385.200 277.155,385.380 276.800,385.600 276.800 C 385.820 276.800,386.000 276.451,386.000 276.024 C 386.000 275.597,386.180 275.136,386.400 275.000 C 386.620 274.864,386.800 274.313,386.800 273.776 C 386.800 273.239,386.941 272.800,387.113 272.800 C 387.285 272.800,387.462 272.361,387.506 271.824 C 387.551 271.287,387.950 270.201,388.394 269.411 C 388.837 268.622,389.200 267.632,389.200 267.211 C 389.200 266.791,389.380 266.336,389.600 266.200 C 389.820 266.064,390.000 265.543,390.000 265.043 C 390.000 264.543,390.125 264.008,390.278 263.855 C 390.431 263.702,390.597 263.298,390.647 262.957 C 390.697 262.616,390.871 262.037,391.033 261.669 C 391.194 261.301,391.402 260.460,391.494 259.800 C 391.586 259.140,391.827 258.540,392.031 258.467 C 392.234 258.393,392.400 257.808,392.400 257.167 C 392.400 256.525,392.580 256.000,392.800 256.000 C 393.020 256.000,393.200 255.280,393.200 254.400 C 393.200 253.520,393.380 252.800,393.600 252.800 C 393.820 252.800,394.000 252.080,394.000 251.200 C 394.000 250.320,394.180 249.600,394.400 249.600 C 394.620 249.600,394.800 248.880,394.800 248.000 C 394.800 247.120,394.980 246.400,395.200 246.400 C 395.420 246.400,395.600 245.500,395.600 244.400 C 395.600 243.300,395.780 242.400,396.000 242.400 C 396.220 242.400,396.400 241.500,396.400 240.400 C 396.400 239.300,396.580 238.400,396.800 238.400 C 397.020 238.400,397.200 237.500,397.200 236.400 C 397.200 235.300,397.380 234.400,397.600 234.400 C 397.829 234.400,398.000 233.200,398.000 231.600 C 398.000 230.000,398.171 228.800,398.400 228.800 C 398.637 228.800,398.800 227.344,398.800 225.233 C 398.800 222.736,398.950 221.617,399.300 221.500 C 400.023 221.259,400.015 180.338,399.292 180.097 C 398.952 179.984,398.800 178.832,398.800 176.367 C 398.800 174.256,398.637 172.800,398.400 172.800 C 398.178 172.800,398.000 171.733,398.000 170.400 C 398.000 169.067,397.822 168.000,397.600 168.000 C 397.378 168.000,397.200 166.933,397.200 165.600 C 397.200 164.267,397.022 163.200,396.800 163.200 C 396.580 163.200,396.400 162.300,396.400 161.200 C 396.400 160.100,396.220 159.200,396.000 159.200 C 395.780 159.200,395.600 158.401,395.600 157.424 C 395.600 156.447,395.420 155.536,395.200 155.400 C 394.980 155.264,394.800 154.443,394.800 153.576 C 394.800 152.709,394.620 152.000,394.400 152.000 C 394.180 152.000,394.000 151.280,394.000 150.400 C 394.000 149.520,393.820 148.800,393.600 148.800 C 393.380 148.800,393.200 148.181,393.200 147.424 C 393.200 146.667,393.020 145.936,392.800 145.800 C 392.580 145.664,392.400 145.023,392.400 144.376 C 392.400 143.729,392.220 143.200,392.000 143.200 C 391.780 143.200,391.600 142.660,391.600 142.000 C 391.600 141.340,391.420 140.800,391.200 140.800 C 390.980 140.800,390.800 140.260,390.800 139.600 C 390.800 138.940,390.620 138.400,390.400 138.400 C 390.180 138.400,390.000 137.860,390.000 137.200 C 390.000 136.540,389.820 136.000,389.600 136.000 C 389.380 136.000,389.200 135.460,389.200 134.800 C 389.200 134.140,389.020 133.600,388.800 133.600 C 388.580 133.600,388.400 133.060,388.400 132.400 C 388.400 131.740,388.220 131.200,388.000 131.200 C 387.780 131.200,387.600 130.845,387.600 130.412 C 387.600 129.979,387.240 128.983,386.800 128.200 C 386.360 127.417,386.000 126.321,386.000 125.764 C 386.000 125.192,385.826 124.860,385.600 125.000 C 385.373 125.140,385.200 124.804,385.200 124.224 C 385.200 123.661,385.020 123.200,384.800 123.200 C 384.580 123.200,384.400 122.845,384.400 122.412 C 384.400 121.979,384.040 120.983,383.600 120.200 C 383.160 119.417,382.800 118.511,382.800 118.188 C 382.800 117.865,382.620 117.600,382.400 117.600 C 382.180 117.600,382.000 117.240,382.000 116.800 C 382.000 116.360,381.820 116.000,381.600 116.000 C 381.380 116.000,381.200 115.640,381.200 115.200 C 381.200 114.760,381.020 114.400,380.800 114.400 C 380.580 114.400,380.400 114.040,380.400 113.600 C 380.400 113.160,380.220 112.800,380.000 112.800 C 379.780 112.800,379.600 112.350,379.600 111.800 C 379.600 111.250,379.420 110.800,379.200 110.800 C 378.980 110.800,378.800 110.530,378.800 110.200 C 378.800 109.870,378.620 109.600,378.400 109.600 C 378.180 109.600,378.000 109.240,378.000 108.800 C 378.000 108.360,377.864 108.000,377.698 108.000 C 377.531 108.000,377.141 107.415,376.830 106.700 C 376.519 105.985,376.160 105.310,376.032 105.200 C 375.560 104.794,374.800 103.192,374.800 102.605 C 374.800 102.272,374.620 102.000,374.400 102.000 C 374.180 102.000,374.000 101.706,374.000 101.347 C 374.000 100.988,373.685 100.401,373.300 100.043 C 372.438 99.241,371.600 97.787,371.600 97.094 C 371.600 96.809,371.240 96.317,370.800 96.000 C 370.360 95.683,370.000 95.143,370.000 94.800 C 370.000 94.457,369.640 93.917,369.200 93.600 C 368.760 93.283,368.400 92.743,368.400 92.400 C 368.400 92.057,368.040 91.517,367.600 91.200 C 367.160 90.883,366.800 90.343,366.800 90.000 C 366.800 89.657,366.440 89.117,366.000 88.800 C 365.560 88.483,365.200 87.943,365.200 87.600 C 365.200 87.257,364.840 86.717,364.400 86.400 C 363.960 86.083,363.600 85.543,363.600 85.200 C 363.600 84.857,363.240 84.317,362.800 84.000 C 362.360 83.683,362.000 83.175,362.000 82.872 C 362.000 82.569,361.460 81.817,360.800 81.200 C 360.140 80.583,359.600 79.888,359.600 79.655 C 359.600 79.422,358.880 78.518,358.000 77.647 C 357.120 76.776,356.400 75.857,356.400 75.605 C 356.400 75.354,355.500 74.271,354.400 73.200 C 353.300 72.129,352.400 71.053,352.400 70.809 C 352.400 70.565,350.960 68.941,349.200 67.200 C 347.440 65.459,346.000 63.844,346.000 63.612 C 346.000 63.062,337.738 54.800,337.188 54.800 C 336.956 54.800,335.341 53.360,333.600 51.600 C 331.859 49.840,330.235 48.400,329.991 48.400 C 329.747 48.400,328.671 47.500,327.600 46.400 C 326.529 45.300,325.446 44.400,325.195 44.400 C 324.943 44.400,324.024 43.680,323.153 42.800 C 322.282 41.920,321.378 41.200,321.145 41.200 C 320.912 41.200,320.217 40.660,319.600 40.000 C 318.983 39.340,318.231 38.800,317.928 38.800 C 317.625 38.800,317.117 38.440,316.800 38.000 C 316.483 37.560,315.975 37.200,315.672 37.200 C 315.369 37.200,314.617 36.660,314.000 36.000 C 313.383 35.340,312.631 34.800,312.328 34.800 C 312.025 34.800,311.517 34.440,311.200 34.000 C 310.883 33.560,310.303 33.200,309.912 33.200 C 309.520 33.200,309.200 33.020,309.200 32.800 C 309.200 32.580,308.880 32.400,308.488 32.400 C 308.097 32.400,307.517 32.040,307.200 31.600 C 306.883 31.160,306.343 30.800,306.000 30.800 C 305.657 30.800,305.117 30.440,304.800 30.000 C 304.483 29.560,303.903 29.200,303.512 29.200 C 303.120 29.200,302.800 29.020,302.800 28.800 C 302.800 28.580,302.480 28.400,302.088 28.400 C 301.697 28.400,301.117 28.040,300.800 27.600 C 300.483 27.160,299.903 26.800,299.512 26.800 C 299.120 26.800,298.800 26.620,298.800 26.400 C 298.800 26.180,298.455 26.000,298.033 26.000 C 297.612 26.000,297.207 25.865,297.133 25.700 C 297.060 25.535,296.145 24.967,295.100 24.437 C 294.055 23.908,293.200 23.323,293.200 23.137 C 293.200 22.952,292.840 22.800,292.400 22.800 C 291.960 22.800,291.600 22.620,291.600 22.400 C 291.600 22.180,291.240 22.000,290.800 22.000 C 290.360 22.000,290.000 21.820,290.000 21.600 C 290.000 21.380,289.640 21.200,289.200 21.200 C 288.760 21.200,288.400 21.020,288.400 20.800 C 288.400 20.580,288.040 20.400,287.600 20.400 C 287.160 20.400,286.800 20.220,286.800 20.000 C 286.800 19.780,286.350 19.600,285.800 19.600 C 285.250 19.600,284.800 19.420,284.800 19.200 C 284.800 18.980,284.440 18.800,284.000 18.800 C 283.560 18.800,283.200 18.620,283.200 18.400 C 283.200 18.180,282.840 18.000,282.400 18.000 C 281.960 18.000,281.600 17.809,281.600 17.576 C 281.600 17.343,281.447 17.248,281.259 17.364 C 281.071 17.480,280.576 17.316,280.159 17.000 C 279.742 16.684,278.995 16.420,278.500 16.413 C 278.005 16.406,277.600 16.220,277.600 16.000 C 277.600 15.780,277.139 15.600,276.576 15.600 C 275.996 15.600,275.660 15.427,275.800 15.200 C 275.944 14.967,275.537 14.800,274.824 14.800 C 274.151 14.800,273.600 14.620,273.600 14.400 C 273.600 14.180,273.240 14.000,272.800 14.000 C 272.360 14.000,272.000 13.820,272.000 13.600 C 272.000 13.380,271.460 13.200,270.800 13.200 C 270.140 13.200,269.600 13.020,269.600 12.800 C 269.600 12.580,269.060 12.400,268.400 12.400 C 267.740 12.400,267.200 12.220,267.200 12.000 C 267.200 11.780,266.851 11.600,266.424 11.600 C 265.997 11.600,265.536 11.420,265.400 11.200 C 265.264 10.980,264.724 10.800,264.200 10.800 C 263.676 10.800,263.136 10.620,263.000 10.400 C 262.864 10.180,262.133 10.000,261.376 10.000 C 260.619 10.000,260.000 9.820,260.000 9.600 C 260.000 9.380,259.460 9.200,258.800 9.200 C 258.140 9.200,257.600 9.020,257.600 8.800 C 257.600 8.580,257.060 8.400,256.400 8.400 C 255.740 8.400,255.200 8.220,255.200 8.000 C 255.200 7.780,254.480 7.600,253.600 7.600 C 252.720 7.600,252.000 7.420,252.000 7.200 C 252.000 6.980,251.280 6.800,250.400 6.800 C 249.520 6.800,248.800 6.620,248.800 6.400 C 248.800 6.180,248.080 6.000,247.200 6.000 C 246.320 6.000,245.600 5.820,245.600 5.600 C 245.600 5.380,244.700 5.200,243.600 5.200 C 242.500 5.200,241.600 5.020,241.600 4.800 C 241.600 4.580,240.700 4.400,239.600 4.400 C 238.500 4.400,237.600 4.220,237.600 4.000 C 237.600 3.780,236.700 3.600,235.600 3.600 C 234.500 3.600,233.600 3.420,233.600 3.200 C 233.600 2.969,232.325 2.800,230.576 2.800 C 228.663 2.800,227.644 2.653,227.800 2.400 C 227.957 2.146,226.879 2.000,224.847 2.000 C 223.087 2.000,221.536 1.820,221.400 1.600 C 221.257 1.368,219.063 1.200,216.176 1.200 C 213.325 1.200,211.200 1.039,211.200 0.823 C 211.200 0.596,206.579 0.432,199.600 0.412 C 191.913 0.390,188.000 0.517,188.000 0.789 M221.261 59.861 C 227.621 66.217,231.050 69.925,230.910 70.292 C 230.789 70.605,211.011 90.602,186.959 114.730 L 143.226 158.600 187.213 202.604 C 211.406 226.807,231.200 246.785,231.200 247.001 C 231.200 247.466,211.152 267.600,210.689 267.600 C 210.212 267.600,102.000 159.209,102.000 158.731 C 102.000 158.064,210.119 50.000,210.787 50.000 C 211.121 50.000,215.834 54.437,221.261 59.861 M247.707 192.315 C 277.568 222.188,302.000 246.931,302.000 247.300 C 302.000 247.999,193.964 356.113,193.064 356.315 C 192.534 356.433,172.400 336.297,172.400 335.648 C 172.400 335.447,192.218 315.437,216.439 291.183 L 260.478 247.083 216.439 203.037 C 192.218 178.812,172.400 158.822,172.400 158.614 C 172.400 158.094,192.477 138.000,192.997 138.000 C 193.227 138.000,217.847 162.442,247.707 192.315 " stroke="none" fill="#fcfcec" fill-rule="evenodd"></path><path id="path3" d="M183.000 148.800 L 173.007 158.799 217.400 203.100 C 241.816 227.465,259.544 245.080,256.796 242.244 C 254.048 239.408,234.198 219.435,212.684 197.861 L 173.568 158.634 183.384 148.818 L 193.200 139.002 247.000 192.800 C 276.590 222.389,300.800 246.824,300.800 247.099 C 300.800 247.374,283.745 264.677,262.900 285.550 C 242.055 306.423,217.890 330.678,209.201 339.450 C 200.511 348.223,217.791 331.055,247.600 301.300 L 301.799 247.200 247.600 193.000 C 217.791 163.190,193.310 138.800,193.198 138.800 C 193.086 138.800,188.497 143.300,183.000 148.800 M217.000 291.600 L 173.002 335.600 183.200 345.700 L 193.398 355.800 183.401 345.699 L 173.404 335.598 217.401 291.599 C 241.600 267.399,261.309 247.600,261.199 247.600 C 261.089 247.600,241.199 267.400,217.000 291.600 " stroke="none" fill="#74746c" fill-rule="evenodd"></path><path id="path4" d="M156.090 104.159 C 126.341 133.946,102.000 158.503,102.000 158.731 C 102.000 159.209,210.212 267.600,210.689 267.600 C 211.152 267.600,231.200 247.466,231.200 247.001 C 231.200 246.785,211.406 226.807,187.213 202.604 L 143.226 158.600 186.959 114.730 C 211.011 90.602,230.789 70.605,230.910 70.292 C 231.170 69.612,211.721 50.000,210.787 50.000 C 210.453 50.000,185.840 74.371,156.090 104.159 M220.697 60.097 C 226.034 65.430,230.400 69.976,230.400 70.198 C 230.400 70.420,210.690 90.311,186.600 114.400 C 162.510 138.489,142.800 158.379,142.800 158.600 C 142.800 158.821,162.510 178.711,186.600 202.800 C 210.690 226.889,230.400 246.780,230.400 247.002 C 230.400 247.224,225.989 251.814,220.599 257.201 L 210.797 266.996 156.599 212.799 L 102.400 158.601 156.499 104.501 C 186.254 74.745,210.688 50.400,210.796 50.400 C 210.905 50.400,215.360 54.764,220.697 60.097 M182.490 148.118 C 176.940 153.683,172.400 158.406,172.400 158.614 C 172.400 158.822,192.218 178.812,216.439 203.037 L 260.478 247.083 216.439 291.183 C 192.218 315.437,172.400 335.447,172.400 335.648 C 172.400 336.297,192.534 356.433,193.064 356.315 C 193.644 356.185,302.000 248.130,302.000 247.682 C 302.000 247.523,277.745 271.661,248.100 301.321 C 218.455 330.982,193.918 355.407,193.572 355.600 C 193.082 355.874,190.715 353.719,182.776 345.776 L 172.607 335.601 216.802 291.400 L 260.997 247.198 217.098 203.298 C 192.954 179.154,173.200 159.128,173.200 158.796 C 173.200 158.013,192.419 138.800,193.202 138.800 C 193.530 138.800,217.289 162.245,245.999 190.900 L 298.200 243.000 245.801 190.500 C 216.981 161.625,193.216 138.000,192.990 138.000 C 192.764 138.000,188.039 142.553,182.490 148.118 " stroke="none" fill="#d4dccc" fill-rule="evenodd"></path></g></svg>