<svg xmlns="http://www.w3.org/2000/svg" xmlns:xlink="http://www.w3.org/1999/xlink" width="300" zoomAndPan="magnify" viewBox="0 0 224.87999 225" height="300" preserveAspectRatio="xMidYMid meet" version="1.0"><defs><g/><clipPath id="2802fa7712"><path d="M 7.019531 24.429688 L 147.933594 24.429688 L 147.933594 200.371094 L 7.019531 200.371094 Z M 7.019531 24.429688 " clip-rule="nonzero"/></clipPath></defs><g clip-path="url(#2802fa7712)"><path fill="#1e3a64" d="M 118.707031 188.570312 C 76.597656 188.570312 42.457031 154.46875 42.457031 112.402344 C 42.457031 70.332031 76.597656 36.230469 118.707031 36.230469 C 129.0625 36.230469 138.933594 38.296875 147.933594 42.03125 C 133.214844 30.980469 114.914062 24.429688 95.082031 24.429688 C 46.445312 24.429688 7.019531 63.816406 7.019531 112.402344 C 7.019531 160.984375 46.445312 200.371094 95.082031 200.371094 C 114.914062 200.371094 133.214844 193.820312 147.933594 182.769531 C 138.933594 186.503906 129.0625 188.570312 118.707031 188.570312 " fill-opacity="1" fill-rule="nonzero"/></g><path fill="#1e3a64" d="M 95.082031 161.03125 C 68.195312 161.03125 46.402344 139.257812 46.402344 112.402344 C 46.402344 85.542969 68.195312 63.773438 95.082031 63.773438 C 104.011719 63.773438 112.378906 66.171875 119.570312 70.363281 L 134.835938 55.117188 C 125.238281 49.792969 114.394531 46.960938 103.109375 46.960938 C 85.609375 46.960938 69.160156 53.765625 56.785156 66.125 C 44.414062 78.488281 37.597656 94.921875 37.597656 112.402344 C 37.597656 122.53125 39.890625 132.308594 44.222656 141.144531 C 44.226562 141.152344 44.230469 141.15625 44.234375 141.164062 C 44.609375 141.925781 44.996094 142.683594 45.398438 143.429688 C 45.394531 143.421875 45.394531 143.410156 45.390625 143.402344 C 48.386719 148.949219 52.199219 154.09375 56.785156 158.675781 C 69.160156 171.035156 85.609375 177.839844 103.109375 177.839844 C 114.394531 177.839844 125.238281 175.007812 134.835938 169.683594 L 119.570312 154.4375 C 112.378906 158.628906 104.011719 161.03125 95.082031 161.03125 " fill-opacity="1" fill-rule="nonzero"/><g fill="#466eab" fill-opacity="1"><g transform="translate(63.925315, 125.583232)"><g><path d="M 11.015625 -0.46875 C 8.253906 -1.957031 6.132812 -4.0625 4.65625 -6.78125 C 3.9375 -8.113281 3.398438 -9.570312 3.046875 -11.15625 C 2.691406 -12.738281 2.515625 -14.414062 2.515625 -16.1875 C 2.515625 -19.75 3.242188 -22.878906 4.703125 -25.578125 C 6.179688 -28.335938 8.316406 -30.445312 11.109375 -31.90625 C 12.503906 -32.644531 14.03125 -33.191406 15.6875 -33.546875 C 17.351562 -33.898438 19.128906 -34.078125 21.015625 -34.078125 C 22.597656 -34.078125 24.164062 -33.925781 25.71875 -33.625 C 27.300781 -33.3125 28.726562 -32.828125 30 -32.171875 L 30.640625 -31.859375 L 30.640625 -24.3125 L 28.96875 -24.3125 L 28.6875 -24.453125 C 27.632812 -25.109375 26.472656 -25.59375 25.203125 -25.90625 C 23.898438 -26.207031 22.675781 -26.359375 21.53125 -26.359375 C 19.882812 -26.359375 18.441406 -26.140625 17.203125 -25.703125 C 15.960938 -25.273438 14.894531 -24.628906 14 -23.765625 C 12.195312 -22.023438 11.296875 -19.5 11.296875 -16.1875 C 11.296875 -14.507812 11.519531 -13.039062 11.96875 -11.78125 C 12.414062 -10.53125 13.078125 -9.488281 13.953125 -8.65625 C 15.679688 -6.914062 18.113281 -6.046875 21.25 -6.046875 C 22.457031 -6.046875 23.695312 -6.234375 24.96875 -6.609375 C 25.625 -6.816406 26.257812 -7.0625 26.875 -7.34375 C 27.5 -7.625 28.101562 -7.9375 28.6875 -8.28125 L 28.96875 -8.46875 L 30.640625 -8.46875 L 30.640625 -0.9375 L 30.03125 -0.5625 C 27.40625 0.957031 24.304688 1.71875 20.734375 1.71875 C 16.984375 1.71875 13.742188 0.988281 11.015625 -0.46875 Z M 11.015625 -0.46875 "/></g></g></g><g fill="#466eab" fill-opacity="1"><g transform="translate(97.387604, 125.583232)"><g/></g></g><g fill="#5f8acb" fill-opacity="1"><g transform="translate(110.400511, 125.583232)"><g><path d="M 4.375 -33.53125 L 11.671875 -33.53125 L 11.671875 1.15625 L 3.203125 1.15625 L 3.203125 -33.53125 Z M 4.375 -33.53125 "/></g></g></g><g fill="#466eab" fill-opacity="1"><g transform="translate(125.25196, 125.583232)"><g/></g></g><g fill="#81aced" fill-opacity="1"><g transform="translate(138.229409, 125.583232)"><g><path d="M 22.28125 0.5625 L 16 -11.15625 L 12.09375 -11.15625 L 12.09375 1.15625 L 3.625 1.15625 L 3.625 -33.53125 L 16.46875 -33.53125 C 20.925781 -33.53125 24.300781 -32.597656 26.59375 -30.734375 C 27.375 -30.117188 28.023438 -29.390625 28.546875 -28.546875 C 29.078125 -27.710938 29.472656 -26.789062 29.734375 -25.78125 C 29.992188 -24.769531 30.125 -23.691406 30.125 -22.546875 C 30.125 -22.210938 30.113281 -21.875 30.09375 -21.53125 C 30.082031 -21.1875 30.054688 -20.851562 30.015625 -20.53125 C 29.972656 -20.207031 29.910156 -19.890625 29.828125 -19.578125 C 29.753906 -19.265625 29.671875 -18.960938 29.578125 -18.671875 C 29.484375 -18.378906 29.378906 -18.082031 29.265625 -17.78125 C 29.160156 -17.488281 29.03125 -17.207031 28.875 -16.9375 C 28.71875 -16.675781 28.5625 -16.410156 28.40625 -16.140625 C 27.476562 -14.710938 26.175781 -13.5625 24.5 -12.6875 L 31.0625 -0.5625 L 31.984375 1.15625 L 22.59375 1.15625 Z M 12.09375 -18.875 L 16.5 -18.875 C 17.125 -18.875 17.691406 -18.910156 18.203125 -18.984375 C 18.710938 -19.066406 19.140625 -19.171875 19.484375 -19.296875 C 19.828125 -19.421875 20.117188 -19.5625 20.359375 -19.71875 C 20.671875 -19.96875 20.910156 -20.300781 21.078125 -20.71875 C 21.253906 -21.132812 21.34375 -21.695312 21.34375 -22.40625 C 21.34375 -23.644531 21.03125 -24.5 20.40625 -24.96875 C 19.632812 -25.5 18.320312 -25.765625 16.46875 -25.765625 L 12.09375 -25.765625 Z M 12.09375 -18.875 "/></g></g></g><g fill="#466eab" fill-opacity="1"><g transform="translate(170.743306, 125.583232)"><g/></g></g><g fill="#8fbbff" fill-opacity="1"><g transform="translate(183.720755, 125.583232)"><g><path d="M 23.25 -6.1875 L 11.015625 -6.1875 L 8.609375 0.421875 L 8.328125 1.15625 L -0.28125 1.15625 L 0.328125 -0.421875 L 12.609375 -32.78125 L 12.875 -33.53125 L 21.625 -33.53125 L 21.90625 -32.78125 L 34.171875 -0.421875 L 34.78125 1.15625 L 25.953125 1.15625 L 25.671875 0.421875 Z M 20.453125 -13.71875 L 17.15625 -22.921875 L 13.8125 -13.71875 Z M 20.453125 -13.71875 "/></g></g></g></svg>